<?xml version="1.0" standalone="no"?>
<!DOCTYPE svg PUBLIC "-//W3C//DTD SVG 20010904//EN"
 "http://www.w3.org/TR/2001/REC-SVG-20010904/DTD/svg10.dtd">
<svg version="1.0" xmlns="http://www.w3.org/2000/svg"
 width="1250.000000pt" height="600.000000pt" viewBox="0 0 1250.000000 600.000000"
 preserveAspectRatio="xMidYMid meet">
<metadata>
Created by potrace 1.16, written by Peter Selinger 2001-2019
</metadata>
<g transform="translate(0.000000,600.000000) scale(0.100000,-0.100000)"
fill="#000000" stroke="none">
<path d="M3253 5985 c-190 -53 -349 -214 -398 -402 -19 -73 -19 -222 0 -293
64 -243 297 -420 550 -420 233 0 454 158 531 379 101 292 -54 620 -341 722
-79 28 -265 36 -342 14z"/>
<path d="M30 2905 l0 -1685 555 0 555 0 0 670 0 670 635 0 635 0 0 380 0 380
-635 0 -635 0 0 240 0 240 745 0 745 0 0 395 0 395 -1300 0 -1300 0 0 -1685z"/>
<path d="M2900 2905 l0 -1685 550 0 550 0 0 1685 0 1685 -550 0 -550 0 0
-1685z"/>
<path d="M4400 2905 l0 -1685 480 0 480 0 2 1091 3 1092 273 -1069 c150 -588
275 -1079 278 -1092 l6 -22 412 2 411 3 275 1076 275 1076 3 -1078 2 -1079
485 0 485 0 0 1685 0 1685 -754 0 -754 0 -11 -47 c-11 -54 -410 -1723 -414
-1736 -1 -5 -99 395 -217 887 l-215 896 -752 0 -753 0 0 -1685z"/>
<path d="M8630 2905 l0 -1685 485 0 485 0 2 1077 3 1077 275 -1077 275 -1077
411 0 411 0 281 1098 281 1097 0 -1097 1 -1098 480 0 480 0 0 1685 0 1685
-752 0 -753 0 -209 -880 c-115 -483 -212 -884 -216 -889 -4 -8 -295 1180 -413
1687 l-19 82 -754 0 -754 0 0 -1685z"/>
<path d="M0 505 l0 -505 6250 0 6250 0 0 505 0 505 -6250 0 -6250 0 0 -505z
m3795 225 c0 -31 -3 -34 -30 -35 -27 0 -30 -3 -33 -37 -3 -36 -2 -38 27 -38
29 0 31 -3 31 -35 0 -32 -2 -35 -30 -35 l-30 0 0 -145 0 -145 -40 0 -40 0 0
145 0 145 -25 0 c-22 0 -25 4 -25 35 0 31 3 35 25 35 23 0 25 3 25 50 0 41 5
56 25 76 21 21 33 25 73 22 46 -3 47 -3 47 -38z m-3225 -10 l0 -40 -95 0 -95
0 0 -65 0 -65 80 0 80 0 0 -40 0 -40 -80 0 -80 0 0 -105 0 -105 -45 0 -45 0 0
250 0 250 140 0 140 0 0 -40z m640 -210 l0 -250 -40 0 c-30 0 -40 4 -40 16 0
13 -5 12 -26 -5 -84 -66 -184 26 -184 167 0 74 19 129 57 162 41 36 88 40 127
9 l26 -20 0 85 0 86 40 0 40 0 0 -250z m2850 0 l0 -250 -40 0 -40 0 0 250 0
250 40 0 40 0 0 -250z m3185 100 c17 -80 33 -151 36 -158 2 -7 20 59 38 147
l34 161 64 0 63 0 0 -250 0 -250 -40 0 -40 0 -2 178 -3 177 -35 -177 -35 -178
-42 0 c-41 0 -42 1 -49 38 -4 20 -19 100 -34 177 l-28 140 -1 -177 -1 -178
-40 0 -40 0 0 250 0 251 62 -3 62 -3 31 -145z m2760 0 c17 -80 33 -151 36
-158 2 -7 20 59 38 147 l34 161 64 0 63 0 0 -250 0 -250 -40 0 -40 0 -2 178
-3 177 -35 -177 -35 -178 -42 0 c-41 0 -42 1 -49 38 -4 20 -19 100 -34 177
l-28 140 -1 -177 -1 -178 -40 0 -40 0 0 250 0 251 62 -3 62 -3 31 -145z m705
-100 l0 -250 -40 0 -40 0 0 250 0 250 40 0 40 0 0 -250z m-8480 110 c28 0 30
-3 30 -35 0 -32 -2 -35 -30 -35 l-30 0 0 -102 c0 -114 6 -134 39 -123 21 6 22
4 19 -32 -3 -38 -4 -38 -49 -41 -74 -5 -83 13 -87 169 -3 119 -5 129 -23 129
-15 0 -19 7 -19 35 0 28 4 35 20 35 16 0 20 7 20 34 0 27 7 40 38 64 l37 30 3
-64 c3 -64 3 -64 32 -64z m3290 0 c28 0 30 -3 30 -35 0 -32 -2 -35 -30 -35
l-30 0 0 -102 c0 -114 6 -134 39 -123 21 6 22 4 19 -32 -3 -38 -4 -38 -49 -41
-74 -5 -83 13 -87 169 -3 119 -5 129 -23 129 -15 0 -19 7 -19 35 0 28 4 35 20
35 16 0 20 7 20 34 0 27 7 40 38 64 l37 30 3 -64 c3 -64 3 -64 32 -64z m1340
0 c28 0 30 -3 30 -35 0 -32 -2 -35 -30 -35 l-30 0 0 -102 c0 -114 6 -134 39
-123 21 6 22 4 19 -32 -3 -38 -4 -38 -49 -41 -74 -5 -83 13 -87 169 -3 119 -5
129 -23 129 -15 0 -19 7 -19 35 0 28 4 35 20 35 16 0 20 7 20 34 0 27 7 40 38
64 l37 30 3 -64 c3 -64 3 -64 32 -64z m-6045 -12 c37 -29 65 -93 65 -150 l0
-48 -95 0 c-87 0 -95 -2 -95 -19 0 -11 10 -32 23 -47 26 -30 61 -27 72 7 5 14
15 19 38 19 51 0 58 -10 40 -49 -21 -43 -67 -71 -116 -71 -90 0 -137 65 -137
188 0 85 15 128 59 165 42 35 105 37 146 5z m650 0 c37 -29 65 -93 65 -150 l0
-48 -95 0 c-87 0 -95 -2 -95 -19 0 -11 10 -32 23 -47 26 -30 61 -27 72 7 5 14
15 19 38 19 51 0 58 -10 40 -49 -21 -43 -67 -71 -116 -71 -90 0 -137 65 -137
188 0 85 15 128 59 165 42 35 105 37 146 5z m301 12 c8 -8 8 -25 1 -56 -10
-42 -12 -44 -38 -39 -47 10 -59 -21 -59 -152 l0 -113 -45 0 -45 0 0 180 0 180
40 0 c31 0 40 -4 40 -17 0 -15 3 -14 22 5 24 23 67 29 84 12z m228 0 c44 -16
54 -52 58 -213 l3 -147 -37 0 c-27 0 -38 4 -38 15 0 20 -7 19 -37 -5 -66 -52
-153 -4 -153 84 0 63 27 91 111 116 73 22 87 41 53 74 -23 23 -51 19 -70 -10
-13 -19 -24 -24 -48 -22 -28 3 -31 6 -29 33 4 48 52 85 113 85 27 0 60 -4 74
-10z m672 -10 c46 -29 74 -92 74 -168 0 -78 -16 -118 -65 -161 -36 -31 -42
-33 -93 -29 -48 4 -60 10 -88 41 -50 54 -66 137 -44 219 12 43 53 96 84 108
38 16 98 11 132 -10z m366 -5 c33 -33 38 -61 38 -216 l0 -129 -45 0 -45 0 0
134 c0 109 -3 138 -16 150 -22 23 -40 20 -63 -10 -19 -24 -21 -40 -21 -150 l0
-124 -40 0 -40 0 0 180 0 180 35 0 c29 0 35 -4 35 -21 0 -20 1 -20 31 5 41 35
97 35 131 1z m474 5 c46 -29 74 -92 74 -168 0 -78 -16 -118 -65 -161 -36 -31
-42 -33 -93 -29 -48 4 -60 10 -88 41 -50 54 -66 137 -44 219 12 43 53 96 84
108 38 16 98 11 132 -10z m866 -5 c33 -33 38 -61 38 -216 l0 -129 -45 0 -45 0
0 134 c0 109 -3 138 -16 150 -22 23 -40 20 -63 -10 -19 -24 -21 -40 -21 -150
l0 -124 -40 0 -40 0 0 180 0 180 35 0 c29 0 35 -4 35 -21 0 -20 1 -20 31 5 41
35 97 35 131 1z m603 3 c37 -29 65 -93 65 -150 l0 -48 -95 0 c-87 0 -95 -2
-95 -19 0 -11 10 -32 23 -47 26 -30 61 -27 72 7 5 14 15 19 38 19 51 0 58 -10
40 -49 -21 -43 -67 -71 -116 -71 -90 0 -137 65 -137 188 0 85 15 128 59 165
42 35 105 37 146 5z m313 -3 c38 -32 57 -81 35 -89 -32 -13 -61 -5 -77 19 -24
36 -86 32 -86 -6 0 -14 13 -22 53 -34 106 -31 145 -74 132 -144 -4 -20 -21
-49 -40 -68 -29 -29 -39 -33 -87 -33 -66 0 -108 24 -132 75 -21 43 -12 55 37
55 20 0 31 -7 39 -25 13 -29 36 -38 72 -29 19 4 26 13 26 29 0 20 -10 27 -64
45 -85 28 -111 57 -111 122 0 43 4 53 33 79 27 24 41 29 86 29 44 0 60 -5 84
-25z m526 4 l26 -20 26 20 c41 33 96 28 128 -10 26 -30 26 -33 26 -185 l0
-154 -40 0 -40 0 0 133 c0 144 -9 175 -47 163 -33 -11 -43 -50 -43 -176 l0
-120 -39 0 -39 0 -4 140 c-2 112 -6 143 -18 150 -21 13 -25 13 -50 -8 -21 -17
-24 -29 -28 -150 l-5 -132 -38 0 -39 0 0 180 0 180 40 0 c30 0 40 -4 40 -16 0
-13 5 -12 26 5 15 12 41 21 59 21 18 0 44 -9 59 -21z m471 -1 c37 -29 65 -93
65 -150 l0 -48 -95 0 c-87 0 -95 -2 -95 -19 0 -11 10 -32 23 -47 26 -30 61
-27 72 7 5 14 15 19 38 19 51 0 58 -10 40 -49 -21 -43 -67 -71 -116 -71 -90 0
-137 65 -137 188 0 85 15 128 59 165 42 35 105 37 146 5z m357 -3 c33 -33 38
-61 38 -216 l0 -129 -45 0 -45 0 0 134 c0 109 -3 138 -16 150 -22 23 -40 20
-63 -10 -19 -24 -21 -40 -21 -150 l0 -124 -40 0 -40 0 0 180 0 180 35 0 c29 0
35 -4 35 -21 0 -20 1 -20 31 5 41 35 97 35 131 1z m1092 15 c44 -16 54 -52 58
-213 l3 -147 -37 0 c-27 0 -38 4 -38 15 0 20 -7 19 -37 -5 -66 -52 -153 -4
-153 84 0 63 27 91 111 116 73 22 87 41 53 74 -23 23 -51 19 -70 -10 -13 -19
-24 -24 -48 -22 -28 3 -31 6 -29 33 4 48 52 85 113 85 27 0 60 -4 74 -10z
m358 -15 c33 -33 38 -61 38 -216 l0 -129 -45 0 -45 0 0 134 c0 109 -3 138 -16
150 -22 23 -40 20 -63 -10 -19 -24 -21 -40 -21 -150 l0 -124 -40 0 -40 0 0
180 0 180 35 0 c29 0 35 -4 35 -21 0 -20 1 -20 31 5 41 35 97 35 131 1z m302
15 c44 -16 54 -52 58 -213 l3 -147 -37 0 c-27 0 -38 4 -38 15 0 20 -7 19 -37
-5 -66 -52 -153 -4 -153 84 0 63 27 91 111 116 73 22 87 41 53 74 -23 23 -51
19 -70 -10 -13 -19 -24 -24 -48 -22 -28 3 -31 6 -29 33 4 48 52 85 113 85 27
0 60 -4 74 -10z m290 -11 c21 -17 26 -18 26 -5 0 12 10 16 40 16 l40 0 0 -192
c0 -106 -5 -210 -10 -230 -6 -20 -25 -49 -42 -63 -29 -25 -38 -27 -101 -23
-63 3 -72 7 -98 36 -16 18 -29 43 -29 57 0 22 4 25 34 25 23 0 44 -8 62 -25
50 -46 93 -25 102 50 l5 49 -28 -22 c-36 -28 -93 -29 -123 -2 -53 49 -74 148
-52 239 22 94 110 140 174 90z m361 -1 c37 -29 65 -93 65 -150 l0 -48 -95 0
c-87 0 -95 -2 -95 -19 0 -11 10 -32 23 -47 26 -30 61 -27 72 7 5 14 15 19 38
19 51 0 58 -10 40 -49 -21 -43 -67 -71 -116 -71 -90 0 -137 65 -137 188 0 85
15 128 59 165 42 35 105 37 146 5z m301 12 c8 -8 8 -25 1 -56 -10 -42 -12 -44
-38 -39 -47 10 -59 -21 -59 -152 l0 -113 -45 0 -45 0 0 180 0 180 40 0 c31 0
40 -4 40 -17 0 -15 3 -14 22 5 24 23 67 29 84 12z m232 -15 c38 -32 57 -81 35
-89 -32 -13 -61 -5 -77 19 -24 36 -86 32 -86 -6 0 -14 13 -22 53 -34 106 -31
145 -74 132 -144 -4 -20 -21 -49 -40 -68 -29 -29 -39 -33 -86 -33 -67 0 -109
24 -133 75 -21 43 -12 55 37 55 20 0 31 -7 39 -25 13 -29 36 -38 72 -29 19 4
26 13 26 29 0 20 -10 27 -64 45 -85 28 -111 57 -111 122 0 43 4 53 33 79 27
24 41 29 86 29 44 0 60 -5 84 -25z m926 15 c44 -16 54 -52 58 -213 l3 -147
-37 0 c-27 0 -38 4 -38 15 0 20 -7 19 -37 -5 -66 -52 -153 -4 -153 84 0 63 27
91 111 116 73 22 87 41 53 74 -23 23 -51 19 -70 -10 -13 -19 -24 -24 -48 -22
-28 3 -31 6 -29 33 4 48 52 85 113 85 27 0 60 -4 74 -10z m460 0 c44 -16 54
-52 58 -213 l3 -147 -37 0 c-27 0 -38 4 -38 15 0 20 -7 19 -37 -5 -66 -52
-153 -4 -153 84 0 63 27 91 111 116 73 22 87 41 53 74 -23 23 -51 19 -70 -10
-13 -19 -24 -24 -48 -22 -28 3 -31 6 -29 33 4 48 52 85 113 85 27 0 60 -4 74
-10z m624 -15 c38 -32 57 -81 35 -89 -32 -13 -61 -5 -77 19 -24 36 -86 32 -86
-6 0 -14 13 -22 53 -34 106 -31 145 -74 132 -144 -4 -20 -21 -49 -40 -68 -29
-29 -39 -33 -86 -33 -67 0 -109 24 -133 75 -21 43 -12 55 37 55 20 0 31 -7 39
-25 13 -29 36 -38 72 -29 19 4 26 13 26 29 0 20 -10 27 -64 45 -85 28 -111 57
-111 122 0 43 4 53 33 79 27 24 41 29 86 29 44 0 60 -5 84 -25z m466 15 c44
-16 54 -52 58 -213 l3 -147 -37 0 c-27 0 -38 4 -38 15 0 20 -7 19 -37 -5 -66
-52 -153 -4 -153 84 0 63 27 91 111 116 73 22 87 41 53 74 -23 23 -51 19 -70
-10 -13 -19 -24 -24 -48 -22 -28 3 -31 6 -29 33 4 48 52 85 113 85 27 0 60 -4
74 -10z m-9664 -180 l0 -180 -40 0 -40 0 0 180 0 180 40 0 40 0 0 -180z m2171
65 l33 -116 35 116 35 115 42 0 41 0 -57 -177 -57 -178 -38 0 -38 0 -34 100
c-18 55 -44 135 -57 178 l-24 77 42 0 43 0 34 -115z m6609 -5 c18 -67 34 -120
35 -118 2 2 15 48 29 103 15 55 29 108 32 118 4 12 16 17 45 17 21 0 39 -4 39
-8 0 -19 -123 -428 -136 -454 -18 -35 -43 -48 -92 -48 -33 0 -41 4 -46 23 -12
45 -8 58 18 51 27 -6 53 15 62 51 4 18 -66 273 -103 373 -4 8 8 12 39 12 l45
0 33 -120z m630 -60 l0 -180 -40 0 -40 0 0 180 0 180 40 0 40 0 0 -180z"/>
<path d="M1038 549 c-42 -24 -46 -171 -7 -210 24 -24 44 -24 68 0 38 38 38
164 0 202 -21 21 -36 23 -61 8z"/>
<path d="M2556 537 c-66 -66 -23 -236 54 -212 63 20 67 205 5 229 -26 10 -35
7 -59 -17z"/>
<path d="M3396 537 c-66 -66 -23 -236 54 -212 63 20 67 205 5 229 -26 10 -35
7 -59 -17z"/>
<path d="M8611 541 c-43 -43 -34 -181 13 -202 35 -16 63 4 77 53 20 77 -10
168 -56 168 -8 0 -24 -9 -34 -19z"/>
</g>
</svg>
